<svg width="124" height="112" viewBox="0 0 124 112" fill="none" xmlns="http://www.w3.org/2000/svg">
<g clip-path="url(#clip0_48_2)">
<path d="M117.198 0.368225H6.80734C5.04547 0.369002 3.35599 1.06924 2.11016 2.31506C0.864321 3.56088 0.164065 5.25036 0.16327 7.01223V70.5356C0.162151 72.2989 0.861497 73.9904 2.10748 75.2381C3.35347 76.4858 5.04404 77.1875 6.80734 77.1888H117.198C118.96 77.1843 120.649 76.4817 121.894 75.2346C123.139 73.9876 123.84 72.2979 123.842 70.5356V7.01225C123.838 5.25135 123.137 3.56368 121.891 2.31854C120.646 1.07339 118.959 0.372137 117.198 0.368225ZM114.787 52.2874C111.1 53.5232 107.75 55.5975 105 58.3471C102.251 61.0968 100.176 64.4468 98.9405 68.1338H76.7078C72.1448 70.4152 67.1133 71.603 62.0117 71.603C56.9102 71.603 51.8787 70.4152 47.3157 68.1338H25.0646C23.8255 64.4471 21.749 61.0977 18.9981 58.3483C16.2471 55.599 12.8965 53.5244 9.20912 52.2874V25.2696C12.8985 24.0336 16.2508 21.9583 19.0021 19.207C21.7534 16.4557 23.8286 13.1035 25.0646 9.41407H47.3341C51.8923 7.13855 56.9171 5.95402 62.0117 5.95402C67.1063 5.95402 72.1312 7.13855 76.6893 9.41407H98.9405C100.173 13.1038 102.246 16.4566 104.996 19.2082C107.746 21.9598 111.098 24.0348 114.787 25.2696L114.787 52.2874Z" fill="#737373"/>
<path d="M94.3035 38.7784C94.3035 40.0833 94.6905 41.3589 95.4155 42.4438C96.1405 43.5288 97.1709 44.3744 98.3765 44.8737C99.582 45.3731 100.909 45.5037 102.188 45.2491C103.468 44.9945 104.644 44.3662 105.567 43.4435C106.489 42.5208 107.118 41.3452 107.372 40.0654C107.627 38.7856 107.496 37.459 106.997 36.2534C106.497 35.0479 105.652 34.0174 104.567 33.2924C103.482 32.5675 102.206 32.1805 100.901 32.1804C99.1522 32.1824 97.4751 32.8782 96.2382 34.1151C95.0013 35.3521 94.3055 37.0291 94.3035 38.7784Z" fill="#737373"/>
<path d="M23.0978 32.1805C21.7928 32.1805 20.5171 32.5674 19.4321 33.2924C18.3471 34.0174 17.5014 35.0479 17.002 36.2535C16.5026 37.4592 16.372 38.7858 16.6265 40.0657C16.8811 41.3456 17.5095 42.5212 18.4323 43.444C19.355 44.3667 20.5307 44.9951 21.8106 45.2497C23.0904 45.5043 24.4171 45.3736 25.6227 44.8742C26.8283 44.3749 27.8588 43.5292 28.5838 42.4441C29.3088 41.3591 29.6958 40.0834 29.6958 38.7785C29.6938 37.0292 28.998 35.3521 27.7611 34.1152C26.5241 32.8782 24.847 32.1825 23.0978 32.1805Z" fill="#737373"/>
<path d="M119.269 85.2678H4.7303C3.51771 85.2678 2.35478 85.7495 1.49734 86.6069C0.639905 87.4643 0.158203 88.6273 0.158203 89.8399C0.158203 91.0525 0.639905 92.2154 1.49734 93.0728C2.35478 93.9303 3.51771 94.412 4.7303 94.412H119.269C120.482 94.412 121.645 93.9303 122.502 93.0728C123.36 92.2154 123.841 91.0525 123.841 89.8399C123.841 88.6273 123.36 87.4643 122.502 86.6069C121.645 85.7495 120.482 85.2678 119.269 85.2678Z" fill="#737373"/>
<path d="M119.269 102.488H4.7303C3.51771 102.488 2.35478 102.969 1.49734 103.827C0.639905 104.684 0.158203 105.847 0.158203 107.06C0.158203 108.272 0.639905 109.435 1.49734 110.293C2.35478 111.15 3.51771 111.632 4.7303 111.632H119.269C120.482 111.632 121.645 111.15 122.502 110.293C123.36 109.435 123.841 108.272 123.841 107.06C123.841 105.847 123.36 104.684 122.502 103.827C121.645 102.969 120.482 102.488 119.269 102.488Z" fill="#737373"/>
<path d="M62.0084 13.7759C57.0634 13.7742 52.2289 15.2389 48.1163 17.9847C44.0037 20.7306 40.7977 24.6343 38.9037 29.2022C37.0097 33.7702 36.5128 38.7971 37.4758 43.6475C38.4389 48.4978 40.8186 52.9536 44.314 56.4515C47.8094 59.9494 52.2636 62.3322 57.1132 63.2986C61.9629 64.2651 66.9902 63.7717 71.5595 61.8809C76.1287 59.9902 80.0347 56.7869 82.7835 52.6762C85.5322 48.5656 87.0003 43.7321 87.002 38.7871C87.0016 32.1569 84.3688 25.7981 79.6822 21.1081C74.9956 16.4182 68.6386 13.7809 62.0084 13.7759ZM75.6458 51.8359C75.367 52.1273 75.0336 52.361 74.6646 52.5235C74.2955 52.6861 73.8981 52.7743 73.4949 52.7832C73.0918 52.7921 72.6908 52.7215 72.315 52.5755C71.9391 52.4294 71.5957 52.2107 71.3043 51.9319L64.157 45.0925C62.5638 45.6389 60.8229 45.5623 59.2839 44.8781C57.7449 44.1939 56.5217 42.9528 55.86 41.4039C55.1983 39.8551 55.147 38.1133 55.7165 36.5283C56.286 34.9432 57.4341 33.6323 58.9303 32.8588V23.633C58.9295 23.2295 59.0084 22.8298 59.1623 22.4567C59.3162 22.0837 59.5422 21.7447 59.8273 21.4591C60.1124 21.1735 60.451 20.9469 60.8238 20.7923C61.1965 20.6377 61.5961 20.5581 61.9996 20.5581C62.4032 20.5581 62.8028 20.6377 63.1755 20.7923C63.5483 20.9469 63.8869 21.1735 64.172 21.4591C64.4571 21.7447 64.683 22.0837 64.837 22.4567C64.9909 22.8298 65.0697 23.2295 65.069 23.633V32.8588C66.4444 33.568 67.5296 34.7344 68.1378 36.1574C68.7461 37.5803 68.8393 39.1708 68.4014 40.655L75.5497 47.4954C76.138 48.0583 76.4786 48.8318 76.4966 49.6458C76.5146 50.4598 76.2085 51.2476 75.6458 51.8359Z" fill="#737373"/>
</g>
<defs>
<clipPath id="clip0_48_2">
<rect width="124" height="112" fill="white"/>
</clipPath>
</defs>
</svg>
