<svg width="176" height="237" viewBox="0 0 176 237" fill="none" xmlns="http://www.w3.org/2000/svg">
<path d="M21.2 21.8999L0.400024 42.6999V130.7C0.400024 202.7 0.500023 219.1 1.00002 221C3.00002 228.5 8.70002 234.3 16.3 236.3C19.4 237.1 155.2 237.3 159 236.4C166.7 234.7 173.3 228.1 175 220.4C175.7 216.9 175.7 20.8999 175 17.3999C173.4 9.7999 167.3 3.5999 159.6 1.4999C157.8 0.999903 146.3 0.899902 99.7 0.899902H42.1L21.2 21.8999ZM91.2 26.0999C93.1 27.0999 93.7 28.3999 94 32.2999L94.2 35.6999L97 36.2999C98.5 36.5999 101.1 37.3999 102.9 37.9999C113.5 41.9999 122.1 52.4999 122.3 61.4999C122.4 64.5999 121.3 66.3999 118.8 67.3999C115.4 68.5999 112.4 66.5999 111.6 62.4999C110.1 55.0999 103.8 48.9999 96.1 47.1999L94.1 46.7999V51.4999C94.1 54.0999 94 59.9999 93.8 64.5999L93.5 72.8999L94.8 73.1999C114 77.1999 121.7 84.0999 121.7 97.5999C121.7 105.1 119.7 110.3 114.9 115.4C110.4 120.2 103.7 123.2 95.3 124.4L93.1 124.7V128C93.1 131.7 92.5 132.9 90.3 134.1C88.6 135 86.9 135 85.2 134.1C83.2 133.1 82.4 131.2 82.4 127.5V124.3L80.3 124C76.1 123.4 71.1 121.8 67.3 120C60.4 116.7 55.7 110.7 54 103C53.3 99.9999 53.3 99.6999 54.1 98.0999C54.7 96.8999 55.6 95.9999 56.8 95.4999C58.5 94.6999 58.8 94.6999 60.5 95.2999C62.7 96.0999 64.2 98.0999 64.6 100.8C65 103.5 67 107 68.8 108.4C69.7 109 71.4 110.1 72.8 110.7C75.2 111.8 81.7 113.6 82.1 113.2C82.2 113.1 82.4 106.2 82.5 97.8999L82.8 82.8999L80.4 82.5999C75.7 81.9999 69.4 80.0999 66.2 78.3999C61.5 75.9999 57.1 71.4999 55.7 67.8999C52.6 59.6999 54.8 50.8999 61.6 44.4999C66.3 39.9999 71.8 37.4999 79.3 36.2999L82.8 35.6999L83.1 32.1999C83.4 29.0999 83.6 28.5999 84.9 27.1999C86.7 25.1999 88.9 24.8999 91.2 26.0999ZM138.7 154C141 156.3 140.4 160.3 137.4 161.8C136 162.5 40.8 162.5 38.7 161.8C35.5 160.7 34.7 156.5 37.2 154L38.5 152.7H88H137.4L138.7 154ZM138.7 179.3C140.5 181.4 140.5 183.9 138.7 185.9L137.4 187.4H88.1C39.4 187.4 38.8 187.4 37.8 186.5C36.4 185.3 35.5 183.1 35.8 181.6C36.1 180.2 38 178.2 39.4 177.9C39.9 177.8 62.2 177.7 88.8 177.8H137.4L138.7 179.3ZM137.8 203.5C139.5 204.4 140.1 205.5 140.1 207.9C140.1 209.4 139.8 210.1 138.8 211.2L137.5 212.5H88H38.7L37.5 211.4C35.1 209.3 35.2 205.3 37.9 203.7C39.3 202.8 40.5 202.8 87.9 202.8C130.3 202.8 136.6 202.9 137.8 203.5Z" fill="#A7A7A7"/>
<path d="M77.1 47.4999C69.3 49.7999 65.3 53.9999 65.3 59.8999C65.3 63.9999 66.8 66.1999 71.3 68.4999C72.8 69.1999 81 71.4999 82.2 71.4999C82.8 71.4999 82.8 69.2999 82.8 59.0999V46.5999H81.3C80.6 46.6999 78.7 46.9999 77.1 47.4999Z" fill="#A7A7A7"/>
<path d="M93.5 98.6999C93.5 110.2 93.6 113.4 94.1 113.4C95.6 113.4 100.7 111.9 102.9 110.8C108 108.2 110.6 104.4 110.9 98.5999C111.2 94.2999 110.7 92.3999 108.4 90.0999C105.9 87.5999 101.3 85.4999 94.9 84.1999L93.6 83.8999V98.6999H93.5Z" fill="#A7A7A7"/>
</svg>
